<?xml version="1.0" standalone="no"?>
<!DOCTYPE svg PUBLIC "-//W3C//DTD SVG 20010904//EN"
 "http://www.w3.org/TR/2001/REC-SVG-20010904/DTD/svg10.dtd">
<svg version="1.0" xmlns="http://www.w3.org/2000/svg"
 width="300.000000pt" height="166.000000pt" viewBox="0 0 300.000000 166.000000"
 preserveAspectRatio="xMidYMid meet">
<metadata>
Created by potrace 1.10, written by Peter Selinger 2001-2011
</metadata>
<g transform="translate(0.000000,166.000000) scale(0.100000,-0.100000)"
fill="#000000" stroke="none">
<path d="M470 835 c0 -170 4 -265 10 -265 6 0 10 95 10 265 0 170 -4 265 -10
265 -6 0 -10 -95 -10 -265z"/>
<path d="M2530 835 c0 -170 4 -265 10 -265 6 0 10 95 10 265 0 170 -4 265 -10
265 -6 0 -10 -95 -10 -265z"/>
<path d="M851 948 c-14 -7 -29 -26 -34 -41 -14 -42 11 -72 78 -91 46 -14 55
-20 55 -39 0 -49 -48 -62 -94 -26 -14 11 -26 29 -26 40 0 10 -4 19 -10 19 -5
0 -10 -22 -10 -50 0 -44 13 -67 22 -40 2 7 14 6 35 -2 42 -16 82 -2 103 35 24
43 -1 77 -73 100 -53 17 -58 21 -55 45 3 24 7 27 43 27 36 0 42 -4 54 -32 20
-45 30 -41 28 11 -2 41 -4 45 -27 44 -14 0 -34 2 -45 6 -11 3 -31 1 -44 -6z"/>
<path d="M1052 950 c-28 -12 -46 -51 -38 -83 4 -19 18 -30 53 -42 67 -23 78
-30 81 -49 9 -46 -59 -62 -96 -23 -12 13 -22 28 -22 35 0 6 -4 14 -10 17 -6 4
-10 -14 -10 -46 0 -44 2 -50 14 -40 11 9 20 9 35 2 54 -30 111 0 111 58 0 46
-11 56 -79 77 -48 14 -52 17 -49 42 5 48 77 42 98 -8 7 -16 15 -28 19 -26 10
6 0 86 -10 86 -5 0 -9 -5 -9 -11 0 -5 -10 -3 -22 5 -25 18 -33 19 -66 6z"/>
<path d="M1360 947 c-35 -18 -70 -74 -70 -114 0 -41 22 -86 52 -107 28 -20 82
-21 98 -1 7 8 16 15 21 15 5 0 9 -7 9 -15 0 -8 4 -15 9 -15 5 0 6 20 3 45 -3
35 -1 46 12 51 31 12 16 22 -34 22 -27 1 -50 -3 -50 -9 0 -5 9 -9 20 -9 16 0
20 -7 20 -30 0 -53 -64 -68 -99 -24 -24 31 -28 104 -8 143 26 51 88 43 117
-14 l15 -30 3 49 c3 51 -4 69 -18 46 -7 -11 -13 -12 -35 -2 -32 15 -34 15 -65
-1z"/>
<path d="M1819 937 c-115 -77 -30 -273 94 -216 35 16 57 60 57 116 0 55 -17
86 -60 108 -39 20 -51 19 -91 -8z m94 -24 c52 -58 20 -183 -46 -183 -13 0 -31
8 -40 18 -33 36 -33 134 0 167 20 20 66 19 86 -2z"/>
<path d="M580 940 c0 -5 9 -10 20 -10 20 0 21 -5 18 -97 -2 -70 -7 -98 -15
-98 -7 0 -14 -4 -15 -9 -3 -8 57 -11 155 -7 l37 1 0 45 c0 25 -4 45 -10 45 -5
0 -10 -8 -10 -18 0 -33 -24 -53 -65 -55 l-40 -2 -3 48 c-3 46 -2 48 20 45 15
-2 24 -11 26 -25 7 -45 22 -22 22 32 0 58 -9 70 -25 33 -6 -13 -18 -24 -27
-26 -15 -3 -18 4 -18 43 l0 46 41 -3 c41 -3 51 -11 63 -51 10 -32 22 -10 18
32 l-4 41 -94 0 c-56 0 -94 -4 -94 -10z"/>
<path d="M1530 940 c0 -5 7 -10 15 -10 12 0 15 -18 15 -101 0 -86 -2 -100 -15
-95 -8 3 -15 0 -15 -7 0 -14 94 -16 97 -1 1 5 -5 8 -13 6 -11 -2 -14 16 -14
98 l0 101 38 -3 c35 -3 37 -5 37 -37 0 -31 -4 -36 -35 -44 l-35 -9 27 -14 c19
-10 28 -24 33 -53 8 -50 26 -67 54 -51 12 6 21 20 21 32 0 21 0 21 -14 2 -14
-19 -15 -19 -21 1 -3 11 -13 33 -21 50 -11 20 -12 31 -5 33 42 14 52 61 21 92
-16 16 -33 20 -95 20 -43 0 -75 -4 -75 -10z"/>
<path d="M2000 941 c0 -5 9 -11 21 -14 19 -5 21 -12 19 -79 -3 -105 -3 -106
30 -123 43 -22 87 -19 115 10 22 22 25 32 25 105 0 62 3 82 15 86 30 12 14 24
-30 24 -46 0 -61 -14 -25 -23 18 -5 20 -14 20 -77 0 -39 -4 -80 -10 -90 -14
-26 -57 -34 -86 -15 -22 14 -24 22 -24 100 0 78 2 85 20 85 11 0 20 5 20 10 0
6 -25 10 -55 10 -30 0 -55 -4 -55 -9z"/>
<path d="M2260 940 c0 -5 7 -10 15 -10 12 0 15 -18 15 -100 0 -82 -3 -100 -14
-98 -8 2 -16 -1 -18 -6 -2 -5 23 -10 55 -11 42 -1 57 2 57 12 0 8 -8 13 -17
11 -15 -2 -19 5 -21 40 l-3 42 40 0 c72 0 107 65 59 110 -18 16 -35 20 -95 20
-42 0 -73 -4 -73 -10z m138 -19 c8 -5 12 -22 10 -42 -3 -30 -7 -34 -40 -40
l-38 -6 0 49 c0 46 1 48 28 48 15 0 33 -4 40 -9z"/>
</g>
</svg>
